<svg viewBox="0 0 59.8401 59.84" xmlns="http://www.w3.org/2000/svg" xmlns:xlink="http://www.w3.org/1999/xlink" width="59.840088" height="59.840027" fill="none" customFrame="#000000">
	<g id="Group 229">
		<circle id="Oval" cx="29.9200001" cy="29.9200001" r="29.9200001" fill="rgb(244,117,33)" />
		<path id="twitter" d="M39.8937 24.3603C39.1606 24.6861 38.3711 24.9055 37.5433 25.0052C38.3894 24.4983 39.036 23.6971 39.3435 22.7413C38.5523 23.21 37.6763 23.5508 36.7438 23.7336C35.9991 22.9374 34.9336 22.4404 33.7584 22.4404C31.1155 22.4404 29.174 24.9055 29.7708 27.4653C26.3715 27.2941 23.3546 25.6651 21.3366 23.1901C20.2645 25.0285 20.7815 27.4354 22.6033 28.6538C21.9334 28.6322 21.3034 28.4477 20.7515 28.1419C20.7067 30.0368 22.0664 31.8104 24.0344 32.206C23.4593 32.3622 22.8277 32.3988 22.186 32.2758C22.7063 33.9015 24.2206 35.0833 26.0091 35.1165C24.2854 36.4663 22.1195 37.0696 19.947 36.8137C21.7588 37.9756 23.9081 38.6521 26.2186 38.6521C33.8183 38.6521 38.1101 32.2342 37.8508 26.478C38.652 25.9028 39.3452 25.1814 39.8937 24.3603Z" fill="rgb(20,20,20)" fill-rule="evenodd" />
	</g>
</svg>
